<svg width="120" height="97" fill="none" xmlns="http://www.w3.org/2000/svg"><path fill-rule="evenodd" clip-rule="evenodd" d="M57.84 4.922c12.174.33 25.403-7.545 35.628-.931 10.259 6.635 9.626 21.499 13.882 32.95 4.507 12.125 15.934 23.752 11.742 35.99-4.195 12.243-19.19 16.825-31.352 21.251-9.606 3.497-19.677 1.059-29.9 1.044-10.202-.015-21.192 4.287-29.836-1.132-8.786-5.507-10.117-17.262-14.497-26.66C8.347 56.36-1.222 46.418.13 34.276 1.576 21.271 9.12 7.959 20.785 2.026c11.32-5.758 24.36 2.553 37.055 2.896Z" fill="#E1F4DF"/></svg>