<svg width="120" height="119" fill="none" xmlns="http://www.w3.org/2000/svg"><path fill-rule="evenodd" clip-rule="evenodd" d="M52.642.001c10.911-.114 19.95 7.24 29.054 13.256 9.567 6.323 18.955 12.668 24.955 22.441 7.397 12.051 15.223 25.349 12.948 39.305-2.404 14.745-12.649 27.611-25.182 35.743-12.177 7.9-27.263 7.961-41.775 7.7-14.255-.256-30.178.439-40.7-9.18C1.674 99.881.531 84.244.021 70.344c-.407-11.107 5.004-20.926 9.351-31.156 3.91-9.202 7.241-18.617 14.652-25.328C32.078 6.567 41.778.115 52.642 0Z" fill="#DFF4F3"/></svg>