<svg width="120" height="114" fill="none" xmlns="http://www.w3.org/2000/svg"><path fill-rule="evenodd" clip-rule="evenodd" d="M60.687.23C73.2-1.887 82.988 11.067 92.36 19.624c8.372 7.645 14.829 16.6 19.2 27.062 4.734 11.332 11.575 23.949 6.847 35.283-4.697 11.26-19.027 13.937-29.78 19.7-9.07 4.86-17.674 10.523-27.939 11.233-10.81.748-22.636-.146-30.895-7.163-8.061-6.849-6.92-19.2-11.407-28.779C12.932 65.321-3.692 55.801.744 43.738c4.493-12.22 24.673-6.918 35.21-14.566C46.482 21.532 47.861 2.402 60.687.231Z" fill="#F1EFEF"/></svg>