<svg width="120" height="120" fill="none" xmlns="http://www.w3.org/2000/svg"><path fill-rule="evenodd" clip-rule="evenodd" d="M59.979.172c12.74 1.079 22.895 9.685 33.207 17.243 10.266 7.523 23.32 13.998 26.304 26.37 2.946 12.217-7.665 22.968-11.519 34.93-3.867 12.007-1.169 27.408-11.076 35.217-9.931 7.828-24.272 2.4-36.916 2.614-12.934.218-29.035 8.133-37.835-1.349-9.228-9.943 3.75-26.74-.26-39.698C17.98 62.88-.109 56.84 0 43.633.112 30.224 11.56 19.29 22.417 11.422 33.267 3.561 46.63-.958 59.98.172Z" fill="#FFEFD5"/></svg>