<svg width="120" height="115" fill="none" xmlns="http://www.w3.org/2000/svg"><path fill-rule="evenodd" clip-rule="evenodd" d="M55.971.569c13.533-2.827 26.895 5.394 38.187 13.37 11.416 8.063 24.351 17.879 25.745 31.786 1.369 13.652-12.097 23.517-19.014 35.367-5.123 8.775-8.071 18.835-16.191 24.944-8.208 6.175-18.457 9.02-28.726 8.85-10.148-.169-19.925-3.701-28.04-9.794-8.024-6.023-12.606-14.933-16.946-23.978C5.947 70.612-2.694 59.683.816 48.576c3.513-11.11 18.242-13.14 27.03-20.79C37.935 19.007 42.88 3.304 55.972.57Z" fill="#E1F4DF"/></svg>