<svg width="120" height="120" fill="none" xmlns="http://www.w3.org/2000/svg"><path fill-rule="evenodd" clip-rule="evenodd" d="M57.074 1.366C70.268-.789 85.676-1.42 95.735 7.386c9.945 8.707 6.681 24.582 10.682 37.18 3.961 12.473 17.255 23.929 12.611 36.163-4.673 12.311-22.346 12.044-33.542 18.976-9.992 6.186-16.718 20.536-28.412 19.38-11.836-1.169-15.244-17.284-24.605-24.62-8.808-6.902-22.618-7-28.155-16.723C-1.546 67.45-.96 54.18 3.223 43.102c4.082-10.811 14.259-17.345 23.393-24.424 9.462-7.334 18.643-15.382 30.458-17.312Z" fill="#E3E1F1"/></svg>