<svg width="32" height="32" viewBox="0 0 32 32" fill="none" xmlns="http://www.w3.org/2000/svg">
<path d="M25.7387 17.9529C25.7387 22.3949 21.4174 26 16.0822 26C10.747 26 6.42578 22.3949 6.42578 17.9529" stroke="#ED8B1B" stroke-width="10.95" stroke-miterlimit="10" stroke-linecap="round"/>
<path d="M25.3365 9.65645C28.0031 9.65645 30.1648 7.49478 30.1648 4.82823C30.1648 2.16167 28.0031 0 25.3365 0C22.67 0 20.5083 2.16167 20.5083 4.82823C20.5083 7.49478 22.67 9.65645 25.3365 9.65645Z" fill="#ED8B1B"/>
<path d="M6.82823 9.65645C9.49478 9.65645 11.6565 7.49478 11.6565 4.82823C11.6565 2.16167 9.49478 0 6.82823 0C4.16167 0 2 2.16167 2 4.82823C2 7.49478 4.16167 9.65645 6.82823 9.65645Z" fill="#ED8B1B"/>
</svg>
