<svg width="325" height="50" fill="none" xmlns="http://www.w3.org/2000/svg"><g clip-path="url(#a)"><path d="M316.575 43.992a2.732 2.732 0 0 0 3.958-3.442 7.835 7.835 0 0 1-.683-3.383c0-6.084 5.05-6.084 5.05-12.167s-5.05-6.083-5.05-12.167a7.99 7.99 0 0 1 .683-3.383 2.732 2.732 0 0 0-3.958-3.442l-13.808 8.859a2.749 2.749 0 0 0-1.259 2.3v15.666a2.75 2.75 0 0 0 1.259 2.3l13.808 8.859ZM8.333 43.992a2.733 2.733 0 0 1-3.958-3.442 7.833 7.833 0 0 0 .683-3.383C5.05 31.083 0 31.083 0 25s5.05-6.083 5.05-12.167a7.858 7.858 0 0 0-.683-3.383 2.733 2.733 0 0 1 3.966-3.442l13.8 8.859a2.748 2.748 0 0 1 1.259 2.3v15.666a2.749 2.749 0 0 1-1.259 2.3l-13.8 8.859Z" fill="#FCCFDA"/><path d="M298.283 0H26.617a6.667 6.667 0 0 0-6.667 6.667v36.666A6.667 6.667 0 0 0 26.617 50h271.666a6.667 6.667 0 0 0 6.667-6.667V6.667A6.667 6.667 0 0 0 298.283 0Z" fill="#FA9EB5"/><path d="M42.283 37.808c-5.225 0-7.65-5.491-7.75-5.725a31.374 31.374 0 0 1-2.341-11.308c-.134-2.75.533-4.917 1.975-6.433a6.608 6.608 0 0 1 4.516-2c3.384 0 5.892 2.058 7.159 5.716a4.725 4.725 0 0 1 2.058-.5h.092a5 5 0 0 1 2.275.542c1.833-5.675 6.208-5.758 6.441-5.758h.117a6.534 6.534 0 0 1 4.842 1.916c2.35 2.4 2.333 6.092 2.325 6.509a28.025 28.025 0 0 1-2.359 11.625 8.633 8.633 0 0 1-7.8 5.358h-.125A6.867 6.867 0 0 1 47.933 35a6.825 6.825 0 0 1-5.65 2.808Z" fill="#fff"/><path d="M56.825 14.217c5.408 0 5.258 6.508 5.258 6.508a26.256 26.256 0 0 1-2.158 10.833 6.841 6.841 0 0 1-6.125 4.325h-.092c-5.516 0-5.575-5.833-5.575-6.358-.091.833-.958 6.417-5.833 6.417-4.05 0-6.033-4.592-6.033-4.592a30 30 0 0 1-2.184-10.617c-.333-6.483 4.525-6.508 4.617-6.508 5.458 0 6.117 7.05 6.208 9.167.084-3.809 2.609-3.959 3.009-3.959h.05c3.158 0 3.383 3.609 3.391 4.384.059-9.6 5.367-9.6 5.367-9.6h.117-.017Zm.017-3.75h-.117c-2.108 0-5.492 1.266-7.5 5.333a7.516 7.516 0 0 0-1.158-.117h-.159a5.885 5.885 0 0 0-1.008.084c-1.708-3.375-4.567-5.3-8.208-5.3a8.425 8.425 0 0 0-5.875 2.583c-1.242 1.3-2.675 3.708-2.5 7.783a33.507 33.507 0 0 0 2.5 12.025c1.083 2.5 4.316 6.825 9.458 6.825a8.742 8.742 0 0 0 5.667-1.966 8.95 8.95 0 0 0 5.691 1.908h.159a10.525 10.525 0 0 0 9.541-6.492 30.25 30.25 0 0 0 2.5-12.383c0-.7-.066-4.942-2.858-7.808a8.418 8.418 0 0 0-6.15-2.5l.017.025Z" fill="#fff"/><path d="M75.658 37.833c-10.025 0-12.675-7.833-12.675-12 0-9.75 6.184-13.216 12.017-13.216h.75c9.008.05 11.392 7.891 11.392 12.041-.017 10.434-7.517 13.175-11.484 13.175Z" fill="#fff"/><path d="M75 14.492h.675c9.592 0 9.592 10.166 9.592 10.166 0 11.275-9.592 11.275-9.592 11.275-10.833 0-10.833-10.133-10.833-10.133 0-10.533 7.766-11.333 10.125-11.333l.033.025Zm.192 12a1.09 1.09 0 0 0 1.166-1.117 1.191 1.191 0 0 0-1.15-1.208 1.207 1.207 0 0 0-1.2 1.258 1.06 1.06 0 0 0 1.2 1.117l-.016-.05ZM75 10.742c-6.4 0-13.875 3.95-13.875 15.083 0 5.583 3.875 13.883 14.55 13.883 3.708 0 13.333-2.7 13.333-15 0-5.566-3.516-13.833-13.191-13.916h-.834l.017-.05Z" fill="#fff"/><path d="M103.333 37.9a6.568 6.568 0 0 1-4.816-2.55l-.2.258a5.833 5.833 0 0 1-3.867 2.134 6.326 6.326 0 0 1-.833.05c-3.892 0-5.767-3.334-6.217-5.059a23.175 23.175 0 0 1-.192-13c1.8-6.741 8.017-7.266 9.892-7.266h.6c6.742.058 9.417 4.741 9.892 7.225.458 2.32.133 4.726-.925 6.841 1.666 1.792 2.5 3.634 2.5 5.509a6.16 6.16 0 0 1-2.35 4.55 5.512 5.512 0 0 1-3.484 1.308Z" fill="#fff"/><path d="M97.075 14.35h.517c7.05 0 8.133 5.7 8.133 5.7a8.25 8.25 0 0 1-1.475 6.775c5.833 4.95 1.408 8.25 1.408 8.25a3.765 3.765 0 0 1-2.325.95c-3.333 0-5.591-5.35-5.716-5.675.783 5.158-3.334 5.525-3.334 5.525-.224.026-.45.04-.675.042-3.466 0-4.4-3.642-4.4-3.642-2.008-6.958-.208-12-.208-12 1.425-5.475 6.45-5.925 8.092-5.925h-.017Zm.533 10.15a1.092 1.092 0 0 0 1.175-1.108 1.197 1.197 0 0 0-1.175-1.259 1.218 1.218 0 0 0-1.2 1.259 1.059 1.059 0 0 0 1.2 1.108Zm-.516-13.9c-4.534 0-10 2.258-11.667 8.592a24.867 24.867 0 0 0 .183 14.075 8.434 8.434 0 0 0 8.017 6.4 9.863 9.863 0 0 0 1.1-.067 7.884 7.884 0 0 0 3.858-1.608 7.2 7.2 0 0 0 9.417.058 8.07 8.07 0 0 0 3.042-5.95 8.898 8.898 0 0 0-2.15-5.892c.805-2.178.995-4.537.55-6.816-.575-3.025-3.742-8.675-11.667-8.775h-.667l-.016-.017Z" fill="#fff"/><path d="M118.883 37.842c-6.716 0-9.675-4.692-10.341-7.259-1.534-4.516-.392-11.35-.35-11.666.833-4.767 4.016-6.45 6.483-6.45h.242a5.604 5.604 0 0 1 4.425 2.025c2.083 2.5 2.275 6.775 2.108 9.741a8.282 8.282 0 0 1 1.808-.216 6.049 6.049 0 0 1 5.909 5.15 6.772 6.772 0 0 1-1.425 5.233c-1.667 2.192-4.542 3.333-8.434 3.475l-.425-.033Z" fill="#fff"/><path d="M114.917 14.358c6.55 0 4.333 12.759 4.333 12.759a8.7 8.7 0 0 1 4.008-1.209c3.434 0 4.067 3.542 4.067 3.542.233 1.083 0 6.275-8.075 6.508h-.367c-7.116 0-8.541-5.916-8.541-5.916-1.442-4.109-.3-10.834-.3-10.834.833-4.691 4.083-4.891 4.633-4.891h.242v.041Zm0-3.791h-.242c-3.45 0-7.358 2.5-8.333 7.991-.134.834-1.234 7.642.4 12.5.833 3.092 4.333 8.592 12.133 8.592h.475c5.583-.167 8.45-2.375 9.867-4.167a8.669 8.669 0 0 0 1.775-6.775 7.85 7.85 0 0 0-7.625-6.575c-.034-2.966-.617-6.483-2.592-8.8a7.45 7.45 0 0 0-5.833-2.691l-.025-.075Z" fill="#fff"/><path d="M138.067 37.858h-.717c-5.567 0-7.5-3.158-7.75-3.516-1.342-2.342-1.333-5.4-1.333-7.634V26.3a41.618 41.618 0 0 1 .7-7.733c.775-4.434 4.45-6.034 7.625-6.034h.475c8.108 0 11.1 4.767 11.525 5.525.425.759 3 5.367.875 12.709-1.967 6.575-9.217 7.091-11.4 7.091Z" fill="#fff"/><path d="M136.567 14.383h.475c7.566 0 9.908 4.592 9.908 4.592s2.725 4.167.683 11.25c-1.533 5.292-7.55 5.75-9.566 5.75h-.742c-4.642 0-6.125-2.575-6.125-2.575-1.167-2.042-1.083-5.042-1.083-7.108a39.308 39.308 0 0 1 .666-7.35c.734-4.217 4.609-4.542 5.784-4.542v-.017Zm2.758 12.117a1.084 1.084 0 0 0 1.175-1.108 1.194 1.194 0 0 0-1.175-1.258c-.683 0-1.2.266-1.2 1.258 0 .991.542 1.108 1.2 1.108Zm-2.758-15.833c-3.75 0-8.467 1.991-9.475 7.591a44.445 44.445 0 0 0-.725 8.05v.359c0 2.45 0 5.833 1.583 8.575.258.458 2.742 4.45 9.35 4.458h.767c6.666 0 11.666-3.158 13.175-8.45 2.275-7.875-.359-13.017-1.034-14.167-1.35-2.5-5.533-6.483-13.158-6.483h-.483v.067ZM168.45 37.75c-3.392 0-5.925-.833-7.5-2.5a5.673 5.673 0 0 1-.092-7.917 5.755 5.755 0 0 1 1.35-1 8.027 8.027 0 0 1-2.041-6.608c.741-5.275 5-7.167 8.408-7.167h1.367c3.625 0 6.091.775 7.5 2.375a5.001 5.001 0 0 1 1.233 3.983 4.765 4.765 0 0 1-2.258 3.584 7.354 7.354 0 0 1 3.283 6.058c0 7.117-6.25 9.1-9.6 9.167-.567 0-1.125.025-1.65.025Z" fill="#fff"/><path d="M169.908 14.425c6.4 0 7.067 2.642 6.892 4.292-.292 2.775-3.883 3.191-6 3.191a14.157 14.157 0 0 1-1.525-.075c8.933 1.167 8.55 6.667 8.55 6.667 0 7.225-7.825 7.333-7.825 7.333-.558.042-1.083.067-1.575.067-7.417 0-7.308-4.383-7.308-4.383-.042-3.659 3.333-4.167 5.316-4.167a10 10 0 0 1 1.467.1c-6.933-1.592-5.942-7.317-5.942-7.317.742-5.308 5.475-5.616 6.559-5.616H169.883l.025-.092Zm-.025-3.658H168.517c-4.167 0-9.334 2.3-10.267 8.791a9.872 9.872 0 0 0 1.3 6.459 7.435 7.435 0 0 0-2.183 5.533 7.498 7.498 0 0 0 2.183 5.092c1.975 2.025 4.958 3.05 8.875 3.05.558 0 1.142 0 1.742-.067 4.6-.1 11.316-3.092 11.375-10.983a8.844 8.844 0 0 0-2.375-6.192 6.79 6.79 0 0 0 1.35-3.333 6.954 6.954 0 0 0-1.667-5.442c-1.808-2.008-4.725-2.992-8.917-2.992l-.05.084Z" fill="#fff"/><path d="M185.942 37.592h-.45a6.018 6.018 0 0 1-5.834-4.817c-1.566-6.592-.058-13.767 0-14.067a7.86 7.86 0 0 1 7.334-6.341h.425a7.3 7.3 0 0 1 6.133 3.033c.239-.39.519-.752.833-1.083a5.783 5.783 0 0 1 4.05-1.742h.334a5.834 5.834 0 0 1 5.95 5 37.017 37.017 0 0 1-.267 14.092c-1.167 5.525-5.083 5.958-6.258 5.958h-.467a7.867 7.867 0 0 1-6.533-3.45A7.003 7.003 0 0 1 190 35.833a5.557 5.557 0 0 1-4.058 1.759Z" fill="#fff"/><path d="M187.375 14.208c5.833 0 6.375 6.775 6.433 7.809 0-7.217 3.809-7.6 4.625-7.6h.334a4.057 4.057 0 0 1 4.1 3.416c.77 4.42.691 8.945-.234 13.334-.833 4.166-3.483 4.525-4.441 4.525-.12.01-.239.01-.359 0h-.141c-6.059 0-7.184-7.925-7.267-8.85.4 8.233-3.333 8.875-4.483 8.875-.117.01-.234.01-.35 0h-.134c-3.333 0-4.008-3.334-4.008-3.334-1.5-6.3 0-13.333 0-13.333s.833-4.65 5.583-4.858h.342v.016Zm0-3.766h-.508c-6.034.3-8.534 5.258-9.092 7.891-.15.734-1.592 8.042 0 14.859a7.844 7.844 0 0 0 7.625 6.25c.175.01.35.01.525 0a7.415 7.415 0 0 0 5.4-2.359 9.324 9.324 0 0 0 6.308 2.342c.178.01.356.01.534 0 3.141 0 6.916-1.958 8.1-7.45a39.363 39.363 0 0 0 .275-14.808 7.801 7.801 0 0 0-7.8-6.534h-.334a7.658 7.658 0 0 0-5 1.9 9.407 9.407 0 0 0-6.1-2.108l.067.017Z" fill="#fff"/><path d="M221.967 37.542a6.75 6.75 0 0 1-3.467-.875A7.69 7.69 0 0 1 216.508 35a7.825 7.825 0 0 1-1.975 1.667 6.757 6.757 0 0 1-3.483.9 8.546 8.546 0 0 1-2.625-.409c-3.558-1.25-4.167-5.316-3.958-7.566a23.273 23.273 0 0 1 4.416-12.95c2.875-4.167 6.525-4.517 7.584-4.517h.091c1.05 0 4.7.325 7.609 4.525a23.504 23.504 0 0 1 4.383 12.942c.217 2.25-.375 6.316-3.95 7.566a8.692 8.692 0 0 1-2.633.384Z" fill="#fff"/><path d="M216.558 13.975c.45 0 3.55.083 6.067 3.717a21.673 21.673 0 0 1 4.042 12s.483 4.558-2.7 5.666c-.65.206-1.327.31-2.009.309a4.928 4.928 0 0 1-2.5-.634 6.524 6.524 0 0 1-2.941-4.533 6.618 6.618 0 0 1-2.95 4.5 4.908 4.908 0 0 1-2.5.633 6.666 6.666 0 0 1-2.009-.308c-3.15-1.108-2.7-5.667-2.7-5.667a21.468 21.468 0 0 1 4.075-12c2.5-3.633 5.592-3.716 6.042-3.716h.1l-.017.033Zm.109 12.958a1.081 1.081 0 0 0 1.166-1.108 1.196 1.196 0 0 0-.316-.877 1.181 1.181 0 0 0-.85-.381 1.22 1.22 0 0 0-1.162.78c-.06.155-.087.32-.08.486a1.069 1.069 0 0 0 .771 1.074c.153.043.314.053.471.026Zm-.075-16.666h-.059c-1.325 0-5.766.383-9.166 5.333a24.881 24.881 0 0 0-4.742 13.892c-.242 2.808.583 7.825 5.192 9.45 1.051.344 2.151.518 3.258.516a8.59 8.59 0 0 0 4.425-1.15c.359-.217.704-.457 1.033-.716.323.256.663.49 1.017.7a8.57 8.57 0 0 0 4.442 1.166 10.295 10.295 0 0 0 3.25-.516c4.641-1.617 5.458-6.667 5.208-9.459a25.31 25.31 0 0 0-4.708-13.875c-3.434-4.958-7.884-5.341-9.167-5.341h.017Z" fill="#fff"/><path d="M241.142 37.725a22.417 22.417 0 0 1-5.917-.833c-2.758-.692-7.992-4.167-7.825-12.134a11.843 11.843 0 0 1 9.35-12.075 17.77 17.77 0 0 1 3.908-.425c2.42-.063 4.811.533 6.917 1.725a6.15 6.15 0 0 1 2.175 7.859c-.408 1.083-1.992 3.008-5.133 3.008A9.164 9.164 0 0 1 243 24.7c-.2-.04-.404-.06-.608-.058a1.833 1.833 0 0 0-.617.083.314.314 0 0 0 0 .075.233.233 0 0 0 0 .083c.258.129.546.184.833.159h.534a8.527 8.527 0 0 1 1.183-.084c3.458 0 5.758 1.859 6.15 5a6.557 6.557 0 0 1-3.333 6.517 12.504 12.504 0 0 1-6 1.25Z" fill="#fff"/><path d="M240.658 14.167a11.744 11.744 0 0 1 5.959 1.466 4.309 4.309 0 0 1 1.408 5.525s-.717 1.859-3.408 1.859c-.428 0-.855-.042-1.275-.125a5.271 5.271 0 0 0-.95-.084c-.992 0-2.4.292-2.5 1.917 0 0-.225 2.233 2.758 2.233.261.016.522.016.783 0 .309-.046.621-.068.934-.066 1.4 0 3.925.416 4.283 3.333a4.778 4.778 0 0 1-2.367 4.65 10.562 10.562 0 0 1-5.141.958 20.083 20.083 0 0 1-5.417-.833s-6.667-1.667-6.45-10.342c0 0-.392-8.333 7.892-10.2a15.099 15.099 0 0 1 3.491-.391v.1Zm0-3.85a19.104 19.104 0 0 0-4.366.491c-8.792 2.1-10.9 9.942-10.767 13.942-.167 9.092 5.933 13.083 9.233 13.933 2.078.59 4.224.898 6.384.917a14.3 14.3 0 0 0 6.983-1.542 8.465 8.465 0 0 0 4.242-8.416 7.212 7.212 0 0 0-2.559-4.792 6.45 6.45 0 0 0 1.667-2.308 8.001 8.001 0 0 0-2.908-10.142 15.127 15.127 0 0 0-7.867-2l-.042-.083Z" fill="#fff"/><path d="M267.075 37.767a7.245 7.245 0 0 1-5.25-2.5 5.84 5.84 0 0 1-3.842 2.316 6.773 6.773 0 0 1-1.291.125c-4.1 0-5.959-3.966-6.375-6.108a32.49 32.49 0 0 1-.225-11.6c.933-6.033 4.65-7.65 6.666-7.65h.309c2.35 0 4.166.692 5.316 2.058.084.092.159.192.234.284a5.74 5.74 0 0 1 7.966.166 5.708 5.708 0 0 1 1.784 4.5 8.863 8.863 0 0 1-2.634 5.209c2.667 3.258 3.8 6.141 3.334 8.575a5.082 5.082 0 0 1-2.342 3.525 7.11 7.11 0 0 1-3.65 1.1Z" fill="#fff"/><path d="M257.092 14.242c5.125 0 4.891 3.925 4.75 4.925a6.361 6.361 0 0 1 1.95-2.975 4.165 4.165 0 0 1 2.741-1.134 4.168 4.168 0 0 1 2.742 1.134c3.75 3.783-2.125 8.25-2.125 8.25 7.5 8.133 2.633 10.616 2.633 10.616a5.196 5.196 0 0 1-2.708.834c-3.7 0-5.833-4.809-6.017-5.15 0 .241.542 4.233-3.416 5a5.55 5.55 0 0 1-.975.091c-3.667 0-4.542-4.625-4.542-4.625a30.528 30.528 0 0 1-.208-10.883c.925-5.95 4.566-6.067 4.841-6.067h.309l.025-.016Zm-.025-3.734h-.334c-2.65 0-7.391 1.975-8.525 9.234a34.659 34.659 0 0 0 .25 12.25c.725 3.675 3.592 7.591 8.209 7.591a8.756 8.756 0 0 0 1.666-.166 7.975 7.975 0 0 0 3.559-1.567 8.43 8.43 0 0 0 5.158 1.808 8.896 8.896 0 0 0 4.617-1.325A6.917 6.917 0 0 0 275 33.5c.483-2.7-.433-5.617-2.792-8.85a9.795 9.795 0 0 0 2.084-5.133 7.557 7.557 0 0 0-.499-3.236 7.557 7.557 0 0 0-1.818-2.723 7.957 7.957 0 0 0-5.408-2.241 7.502 7.502 0 0 0-3.659.975 8.999 8.999 0 0 0-5.783-1.792l-.058.008Z" fill="#fff"/><path d="M281.475 37.75c-3.383 0-5.917-.833-7.5-2.5a5.673 5.673 0 0 1-.092-7.917c.394-.4.847-.736 1.342-1a8.013 8.013 0 0 1-2.033-6.608c.733-5.275 5-7.167 8.408-7.167h1.367c3.625 0 6.083.775 7.5 2.375a5.002 5.002 0 0 1 1.2 3.975 4.811 4.811 0 0 1-2.25 3.559 7.37 7.37 0 0 1 3.275 6.058c0 7.117-6.25 9.1-9.592 9.167a26.49 26.49 0 0 1-1.625.058Z" fill="#fff"/><path d="M282.942 14.425c6.4 0 7.058 2.642 6.891 4.292-.3 2.775-3.891 3.191-6 3.191a14.397 14.397 0 0 1-1.533-.075c8.942 1.167 8.55 6.667 8.55 6.667 0 7.258-7.8 7.342-7.8 7.342-.558.041-1.083.066-1.575.066-7.408 0-7.3-4.383-7.3-4.383-.042-3.658 3.333-4.167 5.317-4.167.488-.002.975.031 1.458.1-6.925-1.625-5.95-7.391-5.95-7.391.75-5.309 5.483-5.617 6.567-5.617H282.933l.009-.025Zm-.009-3.725H281.567c-4.167 0-9.334 2.3-10.267 8.792a9.822 9.822 0 0 0 1.3 6.458.377.377 0 0 0-.083.083 7.41 7.41 0 0 0-2.1 5.45 7.498 7.498 0 0 0 2.183 5.092c1.975 2.025 4.958 3.05 8.867 3.05.558 0 1.141 0 1.741-.067 4.6-.1 11.325-3.091 11.384-10.983a8.884 8.884 0 0 0-2.384-6.125 6.669 6.669 0 0 0 1.342-3.333 6.907 6.907 0 0 0-.249-2.9 6.912 6.912 0 0 0-1.418-2.542c-1.816-2.008-4.733-2.992-8.916-2.992l-.034.017Z" fill="#fff"/><path d="M48.133 29.517c-.091.833-.958 6.416-5.833 6.416-4.05 0-6.033-4.591-6.033-4.591a30 30 0 0 1-2.184-10.617c-.333-6.542 4.617-6.508 4.617-6.508 5.458 0 6.117 7.05 6.208 9.166.092-4.166 3.059-3.958 3.059-3.958 3.541 0 3.391 4.533 3.391 4.533 0-9.75 5.367-9.75 5.367-9.75 5.525-.091 5.375 6.509 5.375 6.509a26.26 26.26 0 0 1-2.158 10.833 6.817 6.817 0 0 1-6.217 4.325c-5.533 0-5.592-5.875-5.592-6.358ZM85.25 24.683c0 11.275-9.592 11.275-9.592 11.275-10.833 0-10.833-10.133-10.833-10.133 0-12.417 10.833-11.308 10.833-11.308 9.592 0 9.592 10.166 9.592 10.166Zm-11.242.717a1.06 1.06 0 0 0 1.2 1.117 1.09 1.09 0 0 0 1.167-1.117 1.19 1.19 0 0 0-1.167-1.233 1.207 1.207 0 0 0-1.2 1.233ZM104.25 26.842c5.833 4.95 1.408 8.25 1.408 8.25-4.491 3.6-7.916-4.35-8.066-4.742.783 5.158-3.334 5.525-3.334 5.525-4.025.508-5.075-3.6-5.075-3.6-2.008-6.958-.208-12-.208-12 1.667-6.567 8.608-5.908 8.608-5.908 7.05 0 8.134 5.7 8.134 5.7a8.234 8.234 0 0 1-1.467 6.775Zm-7.858-3.45a1.056 1.056 0 0 0 1.2 1.108 1.092 1.092 0 0 0 1.175-1.108 1.201 1.201 0 0 0-1.175-1.259 1.218 1.218 0 0 0-1.2 1.259ZM127.325 29.45c.233 1.083 0 6.275-8.075 6.508-7.433.217-8.908-5.908-8.908-5.908-1.442-4.108-.3-10.833-.3-10.833.9-5.134 4.708-4.892 4.708-4.892 6.75-.208 4.5 12.75 4.5 12.75 6.992-3.683 8.075 2.375 8.075 2.375ZM137.408 35.958c-4.708 0-6.208-2.575-6.208-2.575-1.167-2.041-1.083-5.041-1.083-7.108a39.308 39.308 0 0 1 .666-7.35c.834-5 6.117-4.533 6.117-4.533 7.675-.059 10.05 4.591 10.05 4.591s2.725 4.167.683 11.25c-1.858 6.434-10.225 5.725-10.225 5.725Zm.717-10.583c0 .958.542 1.108 1.2 1.108a1.084 1.084 0 0 0 1.175-1.108 1.193 1.193 0 0 0-1.175-1.258c-.683 0-1.2.266-1.2 1.258ZM177.825 28.467c0 7.258-7.825 7.366-7.825 7.366-9 .667-8.883-4.316-8.883-4.316-.059-5.217 6.783-4.109 6.783-4.109-6.933-1.591-5.942-7.316-5.942-7.316.834-6 6.775-5.609 6.775-5.609 7.5-.333 8.225 2.5 8.042 4.259-.417 3.958-7.5 3.116-7.5 3.116 8.933 1.142 8.55 6.609 8.55 6.609ZM187.033 14.217c6.175-.275 6.717 6.75 6.775 7.8 0-8.075 4.775-7.592 4.775-7.592a4.06 4.06 0 0 1 4.284 3.417c.77 4.419.691 8.944-.234 13.333-1.083 5.1-4.8 4.5-4.8 4.5-6.183.117-7.325-7.917-7.408-8.85.475 9.75-4.833 8.85-4.833 8.85-3.417.092-4.167-3.333-4.167-3.333-1.5-6.3 0-13.334 0-13.334s.9-4.583 5.608-4.791ZM219.45 35a6.523 6.523 0 0 1-2.942-4.533A6.624 6.624 0 0 1 213.567 35a5.975 5.975 0 0 1-4.525.325c-3.15-1.108-2.7-5.667-2.7-5.667a21.453 21.453 0 0 1 4.075-12c2.616-3.808 5.883-3.716 6.091-3.716.209 0 3.484-.092 6.117 3.716a21.673 21.673 0 0 1 4.042 12.034s.483 4.558-2.7 5.666A5.975 5.975 0 0 1 219.45 35Zm-4.025-9.167a1.069 1.069 0 0 0 .771 1.074c.153.043.314.053.471.026a1.081 1.081 0 0 0 1.166-1.108 1.196 1.196 0 0 0-.316-.877 1.181 1.181 0 0 0-.85-.381 1.216 1.216 0 0 0-1.242 1.266ZM239.892 24.683s-.267 2.609 3.541 2.192c0 0 4.709-.833 5.217 3.267a4.778 4.778 0 0 1-2.367 4.65s-3.6 2.191-10.558.266c0 0-6.667-1.666-6.45-10.341 0 0-.392-8.334 7.892-10.2 0 0 5.308-1.384 9.45 1.075a4.309 4.309 0 0 1 1.408 5.525s-.933 2.425-4.683 1.733c-.009 0-3.3-.683-3.45 1.833ZM261.842 19.167a6.361 6.361 0 0 1 1.95-2.975 3.924 3.924 0 0 1 5.483 0c3.75 3.783-2.125 8.25-2.125 8.25 7.5 8.133 2.633 10.616 2.633 10.616-5.333 3.217-8.541-3.891-8.725-4.316 0 .241.542 4.233-3.416 5-4.475.833-5.492-4.534-5.492-4.534a30.528 30.528 0 0 1-.208-10.883c.958-6.183 4.858-6.067 4.858-6.067 5.425-.166 5.192 3.884 5.042 4.909ZM290.833 28.467c0 7.258-7.8 7.341-7.8 7.341-9 .667-8.875-4.316-8.875-4.316-.058-5.217 6.775-4.109 6.775-4.109-6.908-1.55-5.933-7.316-5.933-7.316.833-6 6.783-5.609 6.783-5.609 7.5-.333 8.217 2.5 8.042 4.259-.425 3.958-7.5 3.116-7.5 3.116 8.917 1.167 8.508 6.634 8.508 6.634Z" fill="#F14E76"/></g><defs><clipPath id="a"><path fill="#fff" d="M0 0h324.9v50H0z"/></clipPath></defs></svg>